<svg width="450" height="450" viewBox="0 0 450 450" fill="none" xmlns="http://www.w3.org/2000/svg">
<rect width="450" height="450" fill="#4945FF"/>
<g clip-path="url(#clip0_119_53)">
<path d="M129.5 259H304.5C311.406 259 317 253.406 317 246.5V71.5002C317 64.5942 311.406 59 304.5 59H129.5C122.6 59 117 64.5937 117 71.5002V246.5C117 253.406 122.6 259 129.5 259ZM129.5 71.5002H304.5V246.5H129.5V71.5002Z" fill="#E7E7FF"/>
<path d="M248.281 227.75C251.806 227.75 254.594 224.693 254.5 221.225V96.5811C254.65 91.0373 247.813 87.956 243.862 91.9438L181.987 154.438C179.55 156.9 179.638 160.881 181.987 163.369L243.812 225.812C244.944 226.994 246.519 227.75 248.281 227.75ZM195.25 158.9L254.5 100.5V217.5L195.25 158.9Z" fill="#E7E7FF"/>
</g>
<g clip-path="url(#clip1_119_53)">
<rect width="200" height="200" transform="translate(205 212)" fill="#4945FF"/>
<path d="M392.5 212H217.5C210.594 212 205 217.594 205 224.5V399.5C205 406.406 210.594 412 217.5 412H392.5C399.4 412 405 406.406 405 399.5V224.5C405 217.594 399.4 212 392.5 212ZM392.5 399.5H217.5V224.5H392.5V399.5Z" fill="#E7E7FF"/>
<path d="M273.719 243.25C270.194 243.25 267.406 246.307 267.5 249.775V374.419C267.35 379.963 274.187 383.044 278.138 379.056L340.013 316.562C342.45 314.1 342.362 310.119 340.013 307.631L278.188 245.188C277.056 244.006 275.481 243.25 273.719 243.25ZM326.75 312.1L267.5 370.5V253.5L326.75 312.1Z" fill="#E7E7FF"/>
</g>
<defs>
<clipPath id="clip0_119_53">
<rect width="200" height="200" fill="white" transform="matrix(-1 0 0 -1 317 259)"/>
</clipPath>
<clipPath id="clip1_119_53">
<rect width="200" height="200" fill="white" transform="translate(205 212)"/>
</clipPath>
</defs>
</svg>
